{"glyphs":{":":{"x_min":0,"x_max":196,"ha":196,"o":"m 85 480 b 48 480 18 450 18 413 b 18 376 48 346 85 346 b 122 346 152 376 152 413 b 152 450 122 480 85 480 z m 85 104 b 48 104 18 74 18 37 b 18 0 48 -30 85 -30 b 122 -30 152 0 152 37 b 152 74 122 104 85 104 z"},"$":{"x_min":0,"x_max":444,"ha":444,"o":"m 250 401 l 250 511 b 250 528 237 541 220 541 b 203 541 190 528 190 511 l 190 401 b 190 384 203 371 220 371 b 237 371 250 384 250 401 z m 250 77 l 250 229 b 250 246 237 259 220 259 b 203 259 190 246 190 229 l 190 77 b 190 60 203 47 220 47 b 237 47 250 60 250 77 z m 250 -102 l 250 -73 b 250 -56 237 -43 220 -43 b 203 -43 190 -56 190 -73 l 190 -102 b 190 -119 203 -132 220 -132 b 237 -132 250 -119 250 -102 z m 79 70 b 67 77 55 85 44 93 b 31 103 12 100 2 87 b -8 74 -5 55 8 45 b 21 35 35 26 49 18 b 91 -6 138 -23 187 -29 b 201 -31 215 -32 229 -32 b 259 -32 289 -28 318 -19 b 355 -7 391 13 417 44 b 441 72 456 108 456 146 b 456 149 456 154 456 157 b 454 190 441 218 426 238 b 409 261 387 279 363 293 b 318 319 263 328 219 341 b 200 346 159 358 129 383 b 117 393 107 405 100 418 b 93 430 89 444 88 458 b 88 460 88 463 88 463 b 88 479 92 495 100 509 b 108 522 121 536 139 546 b 155 555 174 560 194 561 b 198 561 202 561 205 561 b 221 561 238 558 254 553 b 299 540 334 512 356 484 b 364 474 376 471 389 475 b 402 479 409 489 409 502 l 409 589 b 409 606 396 619 379 619 b 362 619 349 606 349 589 l 349 571 b 325 588 298 601 269 609 b 256 613 243 616 230 618 b 241 622 249 633 249 646 l 249 678 b 249 695 236 708 219 708 b 202 708 189 695 189 678 l 189 646 b 189 635 195 625 205 620 l 202 620 b 197 620 192 620 189 620 b 161 618 133 611 108 597 b 79 581 59 559 47 538 b 34 515 27 489 27 463 b 27 461 27 457 27 455 b 28 432 35 410 46 390 b 57 370 72 353 89 339 b 123 311 163 296 201 285 b 246 272 295 264 333 242 b 351 232 367 219 378 204 b 389 189 396 172 397 155 b 397 152 397 151 397 148 b 397 126 388 103 372 85 b 355 65 329 49 300 40 b 278 33 254 30 230 30 b 219 30 207 31 196 32 b 155 37 115 51 79 72 z"},"?":{"x_min":0,"x_max":332,"ha":332,"o":"m 68 208 l 68 154 b 68 137 81 124 98 124 b 115 124 128 137 128 154 l 128 206 b 129 235 137 263 151 289 b 170 325 210 369 231 399 b 246 419 260 442 269 468 b 275 486 278 505 278 524 b 278 534 277 544 275 554 b 268 591 246 624 215 646 b 188 665 156 674 124 674 b 120 674 116 674 110 674 b 82 672 55 663 32 648 b 18 639 14 620 23 606 b 32 592 51 588 65 597 b 80 607 98 613 116 615 b 120 615 123 615 126 615 b 143 615 164 611 182 598 b 192 591 212 573 218 543 b 219 537 220 531 220 525 b 220 513 218 500 214 488 b 208 470 198 452 185 434 b 159 398 124 363 100 316 b 83 283 72 245 71 207 z m 101 103 b 64 103 34 73 34 36 b 34 -1 64 -31 101 -31 b 138 -31 168 -1 168 36 b 168 73 138 103 101 103 z"},"<":{"x_min":0,"x_max":130,"ha":130,"o":"m 84 220 b 105 230 125 241 145 252 b 159 260 164 278 156 292 b 148 306 130 311 116 303 b 96 292 76 281 56 271 b 38 262 20 254 2 246 b -9 241 -16 231 -16 219 b -16 207 -10 197 1 192 b 19 184 37 176 55 167 b 75 157 95 147 115 136 b 129 128 147 133 155 147 b 163 161 158 179 144 187 b 124 198 104 209 84 219 z"},"'":{"x_min":0,"x_max":161,"ha":161,"o":"m 104 675 l 104 675 b 97 677 90 678 82 678 l 81 678 b 44 678 14 648 14 611 b 14 581 33 556 60 547 b 54 541 42 530 31 524 b 16 516 10 498 18 483 b 26 468 44 462 59 470 b 81 482 100 501 108 510 b 118 521 128 533 137 548 b 147 566 151 584 151 600 b 151 601 151 603 151 604 b 150 620 145 634 138 644 b 130 657 118 667 103 672 z"},"=":{"x_min":0,"x_max":409,"ha":409,"o":"m 356 255 l 42 255 b 25 255 12 242 12 225 b 12 208 25 195 42 195 l 356 195 b 373 195 386 208 386 225 b 386 242 373 255 356 255 z m 356 368 l 42 368 b 25 368 12 355 12 338 b 12 321 25 308 42 308 l 356 308 b 373 308 386 321 386 338 b 386 355 373 368 356 368 z"},"a":{"x_min":0,"x_max":654,"ha":654,"o":"m 401 256 l 241 256 b 224 256 211 243 211 226 b 211 209 224 196 241 196 l 401 196 b 418 196 431 209 431 226 b 431 243 418 256 401 256 z m 242 530 l 20 12 b 13 -3 20 -21 35 -28 b 50 -35 68 -28 75 -13 l 297 505 b 304 520 297 538 282 545 b 267 552 249 545 242 530 z m 624 12 l 350 652 b 343 667 325 674 310 667 b 295 660 288 642 295 627 l 569 -13 b 576 -28 594 -35 609 -28 b 624 -21 631 -3 624 12 z"},"L":{"x_min":0,"x_max":558,"ha":558,"o":"m 215 -30 l 516 -30 b 533 -30 546 -17 546 0 b 546 17 533 30 516 30 l 215 30 b 198 30 185 17 185 0 b 185 -17 198 -30 215 -30 z m 85 640 l 85 0 b 85 -17 98 -30 115 -30 b 132 -30 145 -17 145 0 l 145 640 b 145 657 132 670 115 670 b 98 670 85 657 85 640 z"},"3":{"x_min":0,"x_max":521,"ha":521,"o":"m 96 545 b 91 534 87 522 85 510 b 82 494 93 478 109 475 b 125 472 141 483 144 499 b 145 506 147 513 150 520 b 153 527 157 534 162 540 b 167 546 173 552 179 557 b 185 562 192 566 200 570 b 208 574 216 577 225 579 b 234 581 243 582 252 582 l 253 582 l 254 582 l 255 582 b 263 582 271 581 279 579 b 287 577 295 575 303 572 b 310 569 317 565 323 561 b 330 556 336 551 341 545 b 346 539 351 533 355 526 b 359 519 362 512 364 505 b 365 503 366 501 367 498 b 367 496 367 494 367 491 b 367 487 367 486 367 482 b 367 478 367 474 366 469 b 365 465 364 461 363 457 b 362 453 361 449 359 445 b 356 439 353 433 349 427 b 345 421 340 415 335 409 b 330 404 324 399 318 395 b 310 389 301 384 292 380 b 283 377 273 375 263 373 b 253 371 243 370 233 370 b 216 370 203 357 203 340 b 203 323 216 310 233 310 b 246 310 259 311 272 313 b 286 315 300 318 313 323 b 327 328 340 335 352 344 b 361 351 370 358 378 366 b 386 374 393 383 399 392 b 405 401 410 411 414 421 b 417 427 419 433 421 440 b 423 447 424 454 425 461 b 426 469 426 475 426 481 b 426 485 426 491 426 495 b 426 500 425 504 424 508 b 423 513 422 517 421 521 b 418 533 413 544 407 555 b 401 566 394 576 386 585 b 378 594 369 602 359 609 b 349 616 338 622 327 627 b 316 632 304 636 292 638 b 280 640 268 641 256 641 l 255 641 l 254 641 l 253 641 b 240 641 227 639 214 636 b 201 633 189 629 177 623 b 165 617 154 610 144 602 b 134 594 125 585 117 575 b 109 565 102 554 97 543 z m 433 265 b 419 289 400 305 385 315 b 371 324 352 320 343 306 b 334 292 338 273 352 264 b 359 260 373 249 381 235 b 393 215 399 191 399 167 b 399 146 395 122 382 98 b 371 78 353 60 331 48 b 307 34 276 25 239 25 b 200 25 161 36 133 56 b 121 64 111 74 103 85 b 93 98 74 101 61 91 b 48 81 45 62 55 49 b 67 33 82 19 99 7 b 144 -25 198 -35 240 -35 b 289 -35 331 -23 363 -5 b 394 13 419 38 436 68 b 455 102 461 137 461 166 b 461 200 452 234 434 264 z"},";":{"x_min":0,"x_max":194,"ha":194,"o":"m 92 480 b 55 480 25 450 25 413 b 25 376 55 346 92 346 b 129 346 159 376 159 413 b 159 450 129 480 92 480 z m 115 100 l 115 100 b 108 102 101 103 93 103 l 92 103 b 55 103 25 73 25 36 b 25 6 44 -19 71 -28 b 62 -38 52 -48 42 -58 b 30 -69 30 -88 41 -100 b 52 -112 71 -112 83 -101 b 95 -89 107 -77 119 -64 b 129 -53 139 -41 148 -26 b 158 -8 162 10 162 26 b 162 27 162 29 162 30 b 161 46 156 60 149 70 b 141 83 129 93 114 98 z"},"J":{"x_min":0,"x_max":565,"ha":565,"o":"m 486 203 l 486 640 b 486 657 473 670 456 670 b 439 670 426 657 426 640 l 426 203 b 426 186 439 173 456 173 b 473 173 486 186 486 203 z m 425 40 b 436 52 446 65 454 79 b 462 93 457 111 443 119 b 429 127 411 122 403 108 b 397 98 390 88 382 79 b 352 47 308 28 264 28 l 263 28 b 227 28 185 41 152 71 b 119 101 102 142 99 178 b 98 194 83 206 67 205 b 51 204 39 189 40 173 b 45 118 71 66 112 29 b 153 -8 207 -29 262 -29 l 263 -29 b 324 -29 383 -3 425 41 z"},"V":{"x_min":0,"x_max":620,"ha":620,"o":"m 334 10 l 97 650 b 91 666 74 674 58 668 b 42 662 34 645 40 629 l 277 -11 b 283 -27 300 -35 316 -29 b 332 -23 340 -6 334 10 z m 516 650 l 348 200 b 342 184 350 167 366 161 b 382 155 399 163 405 179 l 573 629 b 579 645 571 662 555 668 b 539 674 522 666 516 650 z"},"\"":{"x_min":0,"x_max":137,"ha":137,"o":"m 136 492 l 136 649 b 136 666 123 679 106 679 b 89 679 76 666 76 649 l 76 492 b 76 475 89 462 106 462 b 123 462 136 475 136 492 z m 61 492 l 61 649 b 61 666 48 679 31 679 b 14 679 1 666 1 649 l 1 492 b 1 475 14 462 31 462 b 48 462 61 475 61 492 z"},"7":{"x_min":0,"x_max":483,"ha":483,"o":"m 331 520 l 80 13 b 73 -2 79 -20 94 -27 b 109 -34 127 -28 134 -13 l 385 494 b 392 509 386 527 371 534 b 356 541 338 535 331 520 z m 87 582 l 410 582 b 427 582 440 595 440 612 b 440 629 427 642 410 642 l 87 642 b 70 642 57 629 57 612 b 57 595 70 582 87 582 z"},"S":{"x_min":0,"x_max":583,"ha":583,"o":"m 389 579 b 415 560 436 527 438 490 b 439 473 453 460 470 461 b 487 462 500 476 499 493 b 496 548 466 597 426 627 b 387 656 339 669 292 669 l 290 669 b 266 669 241 666 217 658 b 192 649 168 635 149 615 b 114 579 107 536 106 516 b 105 499 118 485 135 484 b 152 483 166 496 167 513 b 168 525 172 551 194 573 b 206 585 222 594 239 600 b 256 606 274 609 293 609 l 295 609 b 325 609 363 602 394 579 z m 206 421 b 198 429 191 438 185 447 b 176 461 158 465 144 456 b 130 447 126 429 135 415 b 143 402 152 390 162 379 b 196 344 239 322 281 307 b 328 290 375 280 410 255 b 417 250 424 244 430 238 b 441 226 460 225 472 236 b 484 247 485 266 474 278 b 465 287 455 295 445 302 b 401 334 345 347 302 363 b 276 372 236 389 206 420 z m 521 157 l 521 160 b 521 177 507 190 490 190 b 473 190 460 176 460 159 l 460 157 b 460 126 446 94 423 72 b 407 57 387 46 365 39 b 343 32 320 29 296 29 l 295 29 b 267 29 240 33 215 42 b 190 51 167 65 149 83 b 125 107 111 141 111 174 b 111 175 111 178 111 178 b 111 195 98 209 81 210 b 64 211 50 198 49 181 b 49 179 49 177 49 175 b 49 125 69 77 104 42 b 129 16 160 -2 193 -13 b 225 -24 259 -29 293 -29 l 294 -29 b 323 -29 353 -25 382 -16 b 411 -7 439 8 462 30 b 495 61 518 107 518 158 z"},"}":{"x_min":0,"x_max":170,"ha":170,"o":"m 135 249 b 139 250 145 251 154 251 b 171 251 184 264 184 281 b 184 298 171 311 154 311 b 141 311 137 311 134 312 l 134 628 b 134 661 111 683 76 683 b 55 683 39 678 24 673 b 8 667 1 649 7 634 b 13 619 31 611 46 618 b 51 620 67 624 74 625 l 74 306 b 74 297 76 290 80 284 b 75 274 75 265 74 262 l 74 -57 b 59 -56 46 -47 34 -47 l 33 -47 b 17 -49 5 -64 7 -80 b 9 -96 23 -108 39 -107 b 43 -107 35 -117 78 -117 b 106 -117 135 -100 135 -58 z"},"Z":{"x_min":0,"x_max":703,"ha":703,"o":"m 597 671 l 103 671 b 86 671 73 658 73 641 b 73 624 86 611 103 611 l 597 611 b 614 611 627 624 627 641 b 627 658 614 671 597 671 z m 109 -19 l 551 527 b 561 540 559 559 546 569 b 533 579 514 577 504 564 l 62 18 b 52 5 54 -14 67 -24 b 80 -34 99 -32 109 -19 z m 633 30 l 234 30 b 217 30 204 17 204 0 b 204 -17 217 -30 234 -30 l 633 -30 b 650 -30 663 -17 663 0 b 663 17 650 30 633 30 z"},"x":{"x_min":0,"x_max":780,"ha":780,"o":"m 726 20 l 141 660 b 130 672 111 673 99 662 b 87 651 86 632 97 620 l 682 -20 b 693 -32 712 -33 724 -22 b 736 -11 737 8 726 20 z m 499 413 l 689 619 b 700 631 699 650 687 661 b 675 672 656 671 645 659 l 455 453 b 444 441 445 422 457 411 b 469 400 488 401 499 413 z m 100 -21 l 339 237 b 350 249 349 268 337 279 b 325 290 306 289 295 277 l 56 19 b 45 7 46 -12 58 -23 b 70 -34 89 -33 100 -21 z"},")":{"x_min":0,"x_max":242,"ha":242,"o":"m 124 310 b 124 198 95 86 41 -12 b 33 -27 38 -45 53 -53 b 68 -61 86 -56 94 -41 b 153 66 184 187 184 309 l 184 309 b 184 430 153 551 95 657 b 87 672 69 677 54 669 b 39 661 34 643 42 628 b 95 530 123 419 123 308 z"},"&":{"x_min":0,"x_max":705,"ha":705,"o":"m 585 -14 b 596 -7 618 12 627 45 b 631 61 622 77 606 81 b 590 85 574 76 570 60 b 566 46 557 38 552 35 b 546 31 538 28 528 28 b 526 28 522 28 522 28 b 507 30 497 40 493 45 l 191 423 b 181 436 174 451 171 467 b 170 473 169 479 169 485 b 169 495 171 505 174 515 b 180 534 191 549 203 559 b 214 568 230 577 249 579 b 251 579 253 579 256 579 b 268 579 284 576 298 567 b 305 562 320 548 324 526 b 324 523 324 520 324 516 b 324 506 321 495 316 485 b 310 473 300 461 285 450 b 276 443 266 437 255 432 b 240 425 234 407 241 392 b 248 377 266 371 281 378 b 295 385 309 393 322 403 b 345 420 360 440 370 459 b 379 477 384 497 384 517 b 384 525 383 531 382 537 b 376 571 356 599 331 617 b 308 633 281 641 254 641 b 248 641 244 641 240 641 b 211 638 183 626 161 607 b 136 586 121 560 113 537 b 108 521 105 504 105 487 b 105 478 106 469 108 460 b 113 434 124 410 140 389 l 442 11 b 458 -11 482 -25 509 -29 b 512 -29 519 -29 522 -29 b 539 -29 560 -25 579 -12 z m 98 293 b 103 298 108 302 113 306 b 126 316 128 335 118 348 b 108 361 89 363 76 353 b 69 348 62 342 56 336 b 20 301 -5 254 -11 203 b -12 195 -12 187 -12 179 b -12 143 -3 107 15 75 b 37 36 71 5 111 -14 b 140 -28 172 -35 204 -35 b 215 -35 226 -34 237 -32 b 274 -26 316 -10 354 22 b 357 25 360 28 364 32 b 376 43 377 62 366 74 b 355 86 336 87 324 76 b 321 73 319 71 317 69 b 289 45 258 33 231 29 b 223 28 215 27 207 27 b 183 27 159 32 138 42 b 109 55 84 78 69 105 b 56 127 49 153 49 179 b 49 185 49 191 50 197 b 54 233 72 268 99 294 z m 409 234 b 404 224 400 214 396 204 b 390 189 398 172 413 166 b 428 160 445 168 451 183 b 455 192 459 201 463 209 b 466 216 473 231 484 241 b 490 246 497 251 506 252 b 507 252 509 252 509 252 l 510 252 b 514 252 520 251 524 247 b 528 244 529 240 529 236 b 529 219 542 206 559 206 b 576 206 589 219 589 236 b 589 257 580 276 565 290 b 549 305 529 312 509 312 b 508 312 506 312 505 312 b 502 312 498 312 496 312 b 473 309 459 300 440 285 b 424 270 414 252 406 235 z"},"_":{"x_min":0,"x_max":383,"ha":383,"o":"m 383 22 l 0 22 b -17 22 -30 9 -30 -8 b -30 -25 -17 -38 0 -38 l 383 -38 b 400 -38 413 -25 413 -8 b 413 9 400 22 383 22 z"},"v":{"x_min":0,"x_max":620,"ha":620,"o":"m 334 10 l 97 650 b 91 666 74 674 58 668 b 42 662 34 645 40 629 l 277 -11 b 283 -27 300 -35 316 -29 b 332 -23 340 -6 334 10 z m 516 650 l 348 200 b 342 184 350 167 366 161 b 382 155 399 163 405 179 l 573 629 b 579 645 571 662 555 668 b 539 674 522 666 516 650 z"},"O":{"x_min":0,"x_max":737,"ha":737,"o":"m 361 670 b 180 670 37 511 37 320 b 37 129 180 -30 361 -30 b 542 -30 685 129 685 320 b 685 511 542 670 361 670 z m 96 320 b 96 482 216 610 360 610 b 504 610 624 482 624 320 b 624 158 504 30 360 30 b 216 30 96 158 96 320 z"},"(":{"x_min":0,"x_max":242,"ha":242,"o":"m 46 310 b 46 188 77 67 136 -40 b 144 -55 162 -60 177 -52 b 192 -44 197 -26 189 -11 b 135 87 106 199 106 311 l 106 311 b 106 422 134 533 187 631 b 195 646 190 664 175 672 b 160 680 142 675 134 660 b 76 554 45 433 45 312 z"},"C":{"x_min":0,"x_max":644,"ha":644,"o":"m 360 -30 b 435 -30 519 -1 582 62 b 594 74 594 93 582 105 b 570 117 551 117 539 105 b 488 54 420 30 359 30 l 355 30 b 309 31 263 45 224 70 b 185 95 152 132 130 174 b 109 214 98 260 96 306 b 96 309 96 312 96 316 b 96 358 104 400 120 439 b 138 484 171 536 224 571 b 257 592 302 609 354 609 l 354 609 b 406 609 451 592 484 571 b 498 562 517 566 526 580 b 535 594 531 613 517 622 b 469 653 412 670 354 670 l 354 670 b 296 670 239 653 191 622 b 132 584 89 527 64 464 b 45 417 36 367 36 317 b 36 312 36 308 36 304 b 38 250 51 196 76 147 b 102 96 142 52 191 21 b 239 -10 296 -27 353 -28 b 354 -28 356 -28 357 -28 z"},"W":{"x_min":0,"x_max":911,"ha":911,"o":"m 694 176 l 863 630 b 869 646 861 663 845 669 b 829 675 812 667 806 651 l 637 197 b 631 181 639 164 655 158 b 671 152 688 160 694 176 z m 470 244 l 569 -10 b 575 -25 592 -33 607 -27 b 622 -21 630 -4 624 11 l 525 265 b 519 280 502 288 487 282 b 472 276 464 259 470 244 z m 394 152 l 572 630 b 578 646 570 663 554 669 b 538 675 521 667 515 651 l 337 173 b 331 157 339 140 355 134 b 371 128 388 136 394 152 z m 40 630 l 277 -10 b 283 -26 300 -34 316 -28 b 332 -22 340 -5 334 11 l 97 651 b 91 667 74 675 58 669 b 42 663 34 646 40 630 z"},"A":{"x_min":0,"x_max":654,"ha":654,"o":"m 401 256 l 241 256 b 224 256 211 243 211 226 b 211 209 224 196 241 196 l 401 196 b 418 196 431 209 431 226 b 431 243 418 256 401 256 z m 242 530 l 20 12 b 13 -3 20 -21 35 -28 b 50 -35 68 -28 75 -13 l 297 505 b 304 520 297 538 282 545 b 267 552 249 545 242 530 z m 624 12 l 350 652 b 343 667 325 674 310 667 b 295 660 288 642 295 627 l 569 -13 b 576 -28 594 -35 609 -28 b 624 -21 631 -3 624 12 z"},"f":{"x_min":0,"x_max":571,"ha":571,"o":"m 201 314 l 443 314 b 460 314 473 327 473 344 b 473 361 460 374 443 374 l 201 374 b 184 374 171 361 171 344 b 171 327 184 314 201 314 z m 85 640 l 85 0 b 85 -17 98 -30 115 -30 b 132 -30 145 -17 145 0 l 145 640 b 145 657 132 670 115 670 b 98 670 85 657 85 640 z m 502 670 l 201 670 b 184 670 171 657 171 640 b 171 623 184 610 201 610 l 502 610 b 519 610 532 623 532 640 b 532 657 519 670 502 670 z"},"Q":{"x_min":0,"x_max":748,"ha":748,"o":"m 651 21 l 400 272 b 388 284 369 284 357 272 b 345 260 345 241 357 229 l 608 -22 b 620 -34 639 -34 651 -22 b 663 -10 663 9 651 21 z m 361 -30 b 405 -30 447 -21 485 -4 b 500 3 507 21 500 36 b 493 51 475 58 460 51 b 429 37 395 29 360 29 b 216 29 96 157 96 319 b 96 481 216 609 360 609 b 504 609 624 481 624 319 b 624 266 611 216 588 173 b 580 158 586 140 601 132 b 616 124 634 130 642 145 b 669 196 685 255 685 318 b 685 509 542 668 361 668 b 180 668 37 509 37 318 b 37 127 180 -32 361 -32 z"},"w":{"x_min":0,"x_max":911,"ha":911,"o":"m 694 176 l 863 630 b 869 646 861 663 845 669 b 829 675 812 667 806 651 l 637 197 b 631 181 639 164 655 158 b 671 152 688 160 694 176 z m 470 244 l 569 -10 b 575 -25 592 -33 607 -27 b 622 -21 630 -4 624 11 l 525 265 b 519 280 502 288 487 282 b 472 276 464 259 470 244 z m 394 152 l 572 630 b 578 646 570 663 554 669 b 538 675 521 667 515 651 l 337 173 b 331 157 339 140 355 134 b 371 128 388 136 394 152 z m 40 630 l 277 -10 b 283 -26 300 -34 316 -28 b 332 -22 340 -5 334 11 l 97 651 b 91 667 74 675 58 669 b 42 663 34 646 40 630 z"},"-":{"x_min":0,"x_max":203,"ha":203,"o":"m 186 311 l 15 311 b -2 311 -15 298 -15 281 b -15 264 -2 251 15 251 l 185 251 b 202 251 215 264 215 281 b 215 298 202 311 185 311 z"},"E":{"x_min":0,"x_max":611,"ha":611,"o":"m 201 314 l 459 314 b 476 314 489 327 489 344 b 489 361 476 374 459 374 l 201 374 b 184 374 171 361 171 344 b 171 327 184 314 201 314 z m 199 -30 l 519 -30 b 536 -30 549 -17 549 0 b 549 17 536 30 519 30 l 199 30 b 182 30 169 17 169 0 b 169 -17 182 -30 199 -30 z m 85 640 l 85 0 b 85 -17 98 -30 115 -30 b 132 -30 145 -17 145 0 l 145 640 b 145 657 132 670 115 670 b 98 670 85 657 85 640 z m 518 670 l 201 670 b 184 670 171 657 171 640 b 171 623 184 610 201 610 l 518 610 b 535 610 548 623 548 640 b 548 657 535 670 518 670 z"},"s":{"x_min":0,"x_max":583,"ha":583,"o":"m 389 579 b 415 560 436 527 438 490 b 439 473 453 460 470 461 b 487 462 500 476 499 493 b 496 548 466 597 426 627 b 387 656 339 669 292 669 l 290 669 b 266 669 241 666 217 658 b 192 649 168 635 149 615 b 114 579 107 536 106 516 b 105 499 118 485 135 484 b 152 483 166 496 167 513 b 168 525 172 551 194 573 b 206 585 222 594 239 600 b 256 606 274 609 293 609 l 295 609 b 325 609 363 602 394 579 z m 206 421 b 198 429 191 438 185 447 b 176 461 158 465 144 456 b 130 447 126 429 135 415 b 143 402 152 390 162 379 b 196 344 239 322 281 307 b 328 290 375 280 410 255 b 417 250 424 244 430 238 b 441 226 460 225 472 236 b 484 247 485 266 474 278 b 465 287 455 295 445 302 b 401 334 345 347 302 363 b 276 372 236 389 206 420 z m 521 157 l 521 160 b 521 177 507 190 490 190 b 473 190 460 176 460 159 l 460 157 b 460 126 446 94 423 72 b 407 57 387 46 365 39 b 343 32 320 29 296 29 l 295 29 b 267 29 240 33 215 42 b 190 51 167 65 149 83 b 125 107 111 141 111 174 b 111 175 111 178 111 178 b 111 195 98 209 81 210 b 64 211 50 198 49 181 b 49 179 49 177 49 175 b 49 125 69 77 104 42 b 129 16 160 -2 193 -13 b 225 -24 259 -29 293 -29 l 294 -29 b 323 -29 353 -25 382 -16 b 411 -7 439 8 462 30 b 495 61 518 107 518 158 z"},">":{"x_min":0,"x_max":130,"ha":130,"o":"m 77 273 b 57 283 37 294 17 305 b 3 313 -15 308 -23 294 b -31 280 -26 262 -12 254 b 8 243 28 232 49 222 b 29 212 9 201 -11 190 b -25 182 -30 164 -22 150 b -14 136 4 131 18 139 b 38 150 58 160 78 170 b 96 179 114 187 132 195 b 143 200 149 210 149 222 b 149 234 142 244 131 249 b 113 257 95 265 77 274 z"},"l":{"x_min":0,"x_max":558,"ha":558,"o":"m 215 -30 l 516 -30 b 533 -30 546 -17 546 0 b 546 17 533 30 516 30 l 215 30 b 198 30 185 17 185 0 b 185 -17 198 -30 215 -30 z m 85 640 l 85 0 b 85 -17 98 -30 115 -30 b 132 -30 145 -17 145 0 l 145 640 b 145 657 132 670 115 670 b 98 670 85 657 85 640 z"},"8":{"x_min":0,"x_max":509,"ha":509,"o":"m 351 436 b 348 428 344 420 339 413 b 329 400 332 381 345 371 b 358 361 377 364 387 377 b 395 388 402 400 407 413 b 415 432 419 453 419 474 b 419 495 415 516 407 536 b 393 572 366 602 332 621 b 307 635 279 642 251 642 b 241 642 231 641 221 639 b 172 630 131 599 108 562 b 94 539 83 509 83 474 b 83 458 85 442 90 426 b 104 379 139 340 184 321 b 197 316 225 309 253 306 b 270 304 299 299 309 294 b 342 278 368 247 380 212 b 385 197 388 181 388 165 b 388 145 384 125 376 107 b 361 75 333 48 300 36 b 286 31 270 28 254 28 b 232 28 205 34 180 50 b 145 73 120 113 116 155 b 115 160 115 165 115 170 b 115 199 124 224 135 243 b 141 252 148 261 156 269 b 168 281 168 300 156 312 b 144 324 125 324 113 312 b 102 301 92 288 84 274 b 68 247 55 211 55 169 b 55 162 55 155 56 148 b 62 88 96 32 147 -1 b 183 -24 222 -32 254 -32 b 276 -32 299 -28 320 -20 b 369 -2 409 35 430 82 b 442 108 448 137 448 166 b 448 188 444 210 437 231 b 420 281 384 324 337 347 b 317 357 281 363 261 365 b 240 367 219 372 209 376 b 183 387 158 412 148 443 b 145 453 143 463 143 474 b 143 497 150 517 159 532 b 174 556 201 576 233 582 b 239 583 245 584 251 584 b 269 584 287 579 303 570 b 324 558 342 538 351 515 b 356 503 359 489 359 475 b 359 462 357 449 352 437 z"},"\\":{"x_min":0,"x_max":242,"ha":242,"o":"m 251 9 l 49 653 b 44 669 27 678 11 673 b -5 668 -14 651 -9 635 l 193 -9 b 198 -25 215 -34 231 -29 b 247 -24 256 -7 251 9 z"},"e":{"x_min":0,"x_max":611,"ha":611,"o":"m 201 314 l 459 314 b 476 314 489 327 489 344 b 489 361 476 374 459 374 l 201 374 b 184 374 171 361 171 344 b 171 327 184 314 201 314 z m 199 -30 l 519 -30 b 536 -30 549 -17 549 0 b 549 17 536 30 519 30 l 199 30 b 182 30 169 17 169 0 b 169 -17 182 -30 199 -30 z m 85 640 l 85 0 b 85 -17 98 -30 115 -30 b 132 -30 145 -17 145 0 l 145 640 b 145 657 132 670 115 670 b 98 670 85 657 85 640 z m 518 670 l 201 670 b 184 670 171 657 171 640 b 171 623 184 610 201 610 l 518 610 b 535 610 548 623 548 640 b 548 657 535 670 518 670 z"},"b":{"x_min":0,"x_max":677,"ha":677,"o":"m 615 186 b 615 253 592 309 552 344 b 539 355 520 354 509 341 b 498 328 499 309 512 298 b 536 277 554 240 554 186 l 554 185 b 554 61 461 30 376 30 l 215 30 b 198 30 185 17 185 0 b 185 -17 198 -30 215 -30 l 376 -30 b 522 -30 614 49 614 185 z m 85 639 l 85 -1 b 85 -18 98 -31 115 -31 b 132 -31 145 -18 145 -1 l 145 639 b 145 656 132 669 115 669 b 98 669 85 656 85 639 z m 361 669 l 208 669 b 191 669 178 656 178 639 b 178 622 191 609 208 609 l 361 609 b 464 609 496 560 496 493 b 496 433 452 390 361 390 l 217 390 b 200 390 187 377 187 360 b 187 343 200 330 217 330 l 361 330 b 487 330 556 399 556 493 b 556 580 510 669 361 669 z"},"%":{"x_min":0,"x_max":631,"ha":631,"o":"m 532 662 l 40 18 b 30 5 33 -14 46 -24 b 59 -34 78 -31 88 -18 l 580 626 b 590 639 587 658 574 668 b 561 678 542 675 532 662 z m 334 159 b 334 159 334 148 334 148 b 335 110 343 69 367 33 b 379 15 395 -1 415 -13 b 434 -24 456 -30 479 -30 b 480 -30 482 -30 483 -30 b 503 -29 527 -23 549 -9 b 568 3 583 20 594 38 b 615 74 621 114 621 151 b 621 187 616 231 591 271 b 579 290 563 307 542 319 b 519 333 495 338 475 338 b 474 338 472 338 471 338 b 451 337 427 331 404 316 b 384 303 369 285 358 266 b 338 232 332 194 332 158 z m 392 149 b 392 149 392 158 392 158 b 392 187 397 214 410 236 b 417 248 426 258 437 265 b 449 273 462 276 473 276 l 475 276 b 486 276 499 273 511 266 b 522 259 532 249 539 237 b 554 212 560 182 560 148 b 560 118 555 89 541 66 b 534 55 525 45 515 38 b 503 30 490 27 479 27 l 477 27 b 465 27 453 30 443 36 b 432 42 422 51 415 62 b 400 85 393 114 392 145 z m -5 503 b -5 503 -5 492 -5 492 b -4 454 4 413 28 377 b 40 359 56 343 76 331 b 95 320 117 314 140 314 b 141 314 143 314 144 314 b 164 315 188 321 210 335 b 229 347 244 364 255 382 b 276 418 282 458 282 495 b 282 531 277 575 252 615 b 240 634 224 651 203 663 b 180 677 156 682 136 682 b 135 682 133 682 132 682 b 112 681 88 675 65 660 b 45 647 30 629 19 610 b -1 576 -7 538 -7 502 z m 53 493 b 53 493 53 502 53 502 b 53 531 58 558 71 580 b 78 592 87 602 98 609 b 110 617 123 620 134 620 l 136 620 b 147 620 160 617 172 610 b 183 603 193 593 200 581 b 215 556 221 526 221 492 b 221 462 216 433 202 410 b 195 399 186 389 176 382 b 164 374 151 371 140 371 l 138 371 b 126 371 114 374 104 380 b 93 386 83 395 76 406 b 61 429 54 458 53 489 z"},"m":{"x_min":0,"x_max":894,"ha":894,"o":"m 753 654 l 486 140 b 478 125 484 107 499 99 b 514 91 532 97 540 112 l 807 626 b 815 641 809 659 794 667 b 779 675 761 669 753 654 z m 810 0 l 810 446 b 810 463 797 476 780 476 b 763 476 750 463 750 446 l 750 0 b 750 -17 763 -30 780 -30 b 797 -30 810 -17 810 0 z m 174 461 l 414 -14 b 421 -29 439 -35 454 -28 b 469 -21 475 -3 468 12 l 228 487 b 221 502 203 508 188 501 b 173 494 167 476 174 461 z m 145 0 l 145 640 b 145 657 132 670 115 670 b 98 670 85 657 85 640 l 85 0 b 85 -17 98 -30 115 -30 b 132 -30 145 -17 145 0 z"},"#":{"x_min":0,"x_max":409,"ha":409,"o":"m 260 251 l 246 198 l 127 198 l 141 251 z m 253 -8 l 292 138 l 352 138 b 369 138 382 151 382 168 b 382 185 369 198 352 198 l 308 198 l 322 251 l 352 251 b 369 251 382 264 382 281 b 382 298 369 311 352 311 l 338 311 l 371 436 b 375 452 365 468 349 472 b 333 476 317 466 313 450 l 276 309 l 157 309 l 190 434 b 194 450 184 466 168 470 b 152 474 136 464 132 448 l 95 307 l 38 307 b 21 307 8 294 8 277 b 8 260 21 247 38 247 l 79 247 l 65 194 l 38 194 b 21 194 8 181 8 164 b 8 147 21 134 38 134 l 49 134 l 14 4 b 10 -12 20 -28 36 -32 b 52 -36 68 -26 72 -10 l 111 136 l 230 136 l 195 6 b 191 -10 201 -26 217 -30 b 233 -34 249 -24 253 -8 z"},",":{"x_min":0,"x_max":208,"ha":208,"o":"m 121 100 b 115 102 109 103 104 103 b 102 103 100 103 98 103 l 98 103 l 97 103 b 61 103 32 74 32 38 b 32 8 52 -17 79 -25 b 69 -36 58 -47 47 -58 b 35 -69 35 -88 46 -100 b 57 -112 76 -112 88 -101 b 100 -89 112 -77 124 -64 b 134 -53 144 -41 153 -26 b 163 -8 167 10 167 26 b 167 27 167 29 167 30 b 166 46 161 60 154 70 b 146 83 134 93 119 98 z"},"n":{"x_min":0,"x_max":663,"ha":663,"o":"m 579 200 l 579 640 b 579 657 566 670 549 670 b 532 670 519 657 519 640 l 519 200 b 519 183 532 170 549 170 b 566 170 579 183 579 200 z m 91 623 l 524 -17 b 533 -31 552 -35 566 -26 b 580 -17 584 2 575 16 l 142 656 b 133 670 114 674 100 665 b 86 656 82 637 91 623 z m 146 0 l 146 440 b 146 457 133 470 116 470 b 99 470 86 457 86 440 l 86 0 b 86 -17 99 -30 116 -30 b 133 -30 146 -17 146 0 z"},"h":{"x_min":0,"x_max":665,"ha":665,"o":"m 520 640 l 520 0 b 520 -17 533 -30 550 -30 b 567 -30 580 -17 580 0 l 580 640 b 580 657 567 670 550 670 b 533 670 520 657 520 640 z m 200 314 l 466 314 b 483 314 496 327 496 344 b 496 361 483 374 466 374 l 200 374 b 183 374 170 361 170 344 b 170 327 183 314 200 314 z m 84 640 l 84 0 b 84 -17 97 -30 114 -30 b 131 -30 144 -17 144 0 l 144 640 b 144 657 131 670 114 670 b 97 670 84 657 84 640 z"},"z":{"x_min":0,"x_max":703,"ha":703,"o":"m 597 671 l 103 671 b 86 671 73 658 73 641 b 73 624 86 611 103 611 l 597 611 b 614 611 627 624 627 641 b 627 658 614 671 597 671 z m 109 -19 l 551 527 b 561 540 559 559 546 569 b 533 579 514 577 504 564 l 62 18 b 52 5 54 -14 67 -24 b 80 -34 99 -32 109 -19 z m 633 30 l 234 30 b 217 30 204 17 204 0 b 204 -17 217 -30 234 -30 l 633 -30 b 650 -30 663 -17 663 0 b 663 17 650 30 633 30 z"},"B":{"x_min":0,"x_max":677,"ha":677,"o":"m 615 186 b 615 253 592 309 552 344 b 539 355 520 354 509 341 b 498 328 499 309 512 298 b 536 277 554 240 554 186 l 554 185 b 554 61 461 30 376 30 l 215 30 b 198 30 185 17 185 0 b 185 -17 198 -30 215 -30 l 376 -30 b 522 -30 614 49 614 185 z m 85 639 l 85 -1 b 85 -18 98 -31 115 -31 b 132 -31 145 -18 145 -1 l 145 639 b 145 656 132 669 115 669 b 98 669 85 656 85 639 z m 361 669 l 208 669 b 191 669 178 656 178 639 b 178 622 191 609 208 609 l 361 609 b 464 609 496 560 496 493 b 496 433 452 390 361 390 l 217 390 b 200 390 187 377 187 360 b 187 343 200 330 217 330 l 361 330 b 487 330 556 399 556 493 b 556 580 510 669 361 669 z"},"K":{"x_min":0,"x_max":613,"ha":613,"o":"m 234 265 l 520 -21 b 532 -33 551 -33 563 -21 b 575 -9 575 10 563 22 l 277 308 b 265 320 246 320 234 308 b 222 296 222 277 234 265 z m 212 329 l 503 620 b 515 632 515 651 503 663 b 491 675 472 675 460 663 l 169 372 b 157 360 157 341 169 329 b 181 317 200 317 212 329 z m 145 0 l 145 640 b 145 657 132 670 115 670 b 98 670 85 657 85 640 l 85 0 b 85 -17 98 -30 115 -30 b 132 -30 145 -17 145 0 z"},"R":{"x_min":0,"x_max":650,"ha":650,"o":"m 278 230 l 544 -22 b 556 -33 575 -33 586 -21 b 597 -9 597 10 585 21 l 319 273 b 307 284 288 284 277 272 b 266 260 266 241 278 230 z m 86 640 l 86 0 b 86 -17 99 -30 116 -30 b 133 -30 146 -17 146 0 l 146 640 b 146 657 133 670 116 670 b 99 670 86 657 86 640 z m 374 670 l 216 670 b 199 670 186 657 186 640 b 186 623 199 610 216 610 l 374 610 b 470 610 501 558 501 488 b 501 426 476 369 376 369 l 222 369 b 205 369 192 356 192 339 b 192 322 205 309 222 309 l 376 309 b 485 309 561 367 561 487 b 561 608 486 669 374 669 z"},"T":{"x_min":0,"x_max":573,"ha":573,"o":"m 255 550 l 255 0 b 255 -17 268 -30 285 -30 b 302 -30 315 -17 315 0 l 315 550 b 315 567 302 580 285 580 b 268 580 255 567 255 550 z m 520 670 l 51 670 b 34 670 21 657 21 640 b 21 623 34 610 51 610 l 520 610 b 537 610 550 623 550 640 b 550 657 537 670 520 670 z"},"P":{"x_min":0,"x_max":606,"ha":606,"o":"m 86 640 l 86 0 b 86 -17 99 -30 116 -30 b 133 -30 146 -17 146 0 l 146 640 b 146 657 133 670 116 670 b 99 670 86 657 86 640 z m 362 670 l 217 670 b 200 670 187 657 187 640 b 187 623 200 610 217 610 l 362 610 b 472 610 500 529 500 464 b 500 378 450 329 374 329 l 220 329 b 203 329 190 316 190 299 b 190 282 203 269 220 269 l 374 269 b 478 269 560 339 560 464 b 560 572 499 670 362 670 z"},"|":{"x_min":0,"x_max":120,"ha":120,"o":"m 90 -42 l 90 644 b 90 661 77 674 60 674 b 43 674 30 661 30 644 l 30 -42 b 30 -59 43 -72 60 -72 b 77 -72 90 -59 90 -42 z"},"t":{"x_min":0,"x_max":573,"ha":573,"o":"m 255 550 l 255 0 b 255 -17 268 -30 285 -30 b 302 -30 315 -17 315 0 l 315 550 b 315 567 302 580 285 580 b 268 580 255 567 255 550 z m 520 670 l 51 670 b 34 670 21 657 21 640 b 21 623 34 610 51 610 l 520 610 b 537 610 550 623 550 640 b 550 657 537 670 520 670 z"},"M":{"x_min":0,"x_max":894,"ha":894,"o":"m 753 654 l 486 140 b 478 125 484 107 499 99 b 514 91 532 97 540 112 l 807 626 b 815 641 809 659 794 667 b 779 675 761 669 753 654 z m 810 0 l 810 446 b 810 463 797 476 780 476 b 763 476 750 463 750 446 l 750 0 b 750 -17 763 -30 780 -30 b 797 -30 810 -17 810 0 z m 174 461 l 414 -14 b 421 -29 439 -35 454 -28 b 469 -21 475 -3 468 12 l 228 487 b 221 502 203 508 188 501 b 173 494 167 476 174 461 z m 145 0 l 145 640 b 145 657 132 670 115 670 b 98 670 85 657 85 640 l 85 0 b 85 -17 98 -30 115 -30 b 132 -30 145 -17 145 0 z"},"g":{"x_min":0,"x_max":672,"ha":672,"o":"m 445 592 b 459 586 473 579 486 571 b 500 562 519 566 528 580 b 537 594 533 613 519 622 b 503 632 486 641 468 648 b 450 655 432 660 413 664 b 394 668 375 670 356 670 b 337 670 318 668 299 664 b 280 660 262 655 244 648 b 226 641 209 632 193 622 b 174 609 156 594 140 577 b 124 560 110 542 98 523 b 86 504 76 484 67 463 b 61 447 56 431 52 415 b 48 399 45 383 43 366 b 41 349 40 332 40 315 b 40 313 40 311 40 309 b 40 307 40 305 40 303 b 41 285 43 267 46 249 b 49 231 54 213 60 196 b 66 179 73 162 81 146 b 90 129 100 113 112 98 b 124 83 137 69 151 56 b 165 43 180 31 196 21 b 212 11 229 2 247 -5 b 265 -12 283 -18 302 -22 b 321 -26 340 -28 359 -28 b 384 -28 409 -25 433 -18 b 457 -11 481 -1 503 12 b 553 42 596 93 610 157 b 614 178 614 205 614 210 l 614 311 b 614 328 601 341 584 341 b 567 341 554 328 554 311 l 554 209 b 554 193 552 177 550 169 b 541 126 511 87 472 64 b 455 54 437 46 418 41 b 399 36 379 33 359 33 b 344 33 329 35 314 38 b 299 41 284 45 270 51 b 256 57 242 64 229 72 b 216 80 204 90 193 101 b 181 112 170 124 160 137 b 150 150 142 163 135 177 b 128 190 122 204 117 218 b 112 232 108 247 105 262 b 102 277 100 292 99 307 b 99 309 99 313 99 313 b 99 315 99 319 99 319 b 99 333 100 347 102 361 b 104 375 107 389 111 403 b 115 417 119 430 124 443 b 131 461 140 478 150 494 b 160 510 172 525 185 539 b 198 552 212 564 228 574 b 241 582 255 589 269 595 b 283 601 298 605 313 608 b 328 611 343 613 358 613 b 373 613 388 611 403 608 b 418 605 433 601 447 595 z m 300 281 l 489 280 b 506 280 520 293 520 310 b 520 327 507 341 490 341 l 301 342 b 284 342 270 329 270 312 b 270 295 283 281 300 281 z"},"j":{"x_min":0,"x_max":570,"ha":570,"o":"m 491 203 l 491 640 b 491 657 478 670 461 670 b 444 670 431 657 431 640 l 431 203 b 431 186 444 173 461 173 b 478 173 491 186 491 203 z m 430 40 b 441 52 451 65 459 79 b 467 93 462 111 448 119 b 434 127 416 122 408 108 b 402 98 395 88 387 79 b 357 47 313 28 269 28 l 268 28 b 232 28 190 41 157 71 b 124 101 107 142 104 178 b 103 194 88 206 72 205 b 56 204 44 189 45 173 b 50 118 76 66 117 29 b 158 -8 212 -29 267 -29 l 268 -29 b 329 -29 388 -3 430 41 z"},"i":{"x_min":0,"x_max":230,"ha":230,"o":"m 85 640 l 85 0 b 85 -17 98 -30 115 -30 b 132 -30 145 -17 145 0 l 145 640 b 145 657 132 670 115 670 b 98 670 85 657 85 640 z"},"y":{"x_min":0,"x_max":659,"ha":659,"o":"m 357 0 l 357 240 b 357 257 344 270 327 270 b 310 270 297 257 297 240 l 297 0 b 297 -17 310 -30 327 -30 b 344 -30 357 -17 357 0 z m 349 362 l 76 660 b 65 672 46 673 34 662 b 22 651 21 632 32 620 l 305 322 b 316 310 335 309 347 320 b 359 331 360 350 349 362 z m 579 660 l 406 472 b 395 460 396 441 408 430 b 420 419 439 420 450 432 l 623 620 b 634 632 633 651 621 662 b 609 673 590 672 579 660 z"},"@":{"x_min":0,"x_max":475,"ha":475,"o":"m 121 364 b 116 359 112 354 108 348 b 99 334 103 315 117 306 b 131 297 150 301 159 315 b 161 318 163 321 165 324 b 171 330 178 335 186 339 b 199 345 214 348 230 348 b 231 348 233 348 234 348 b 241 348 247 347 253 346 b 259 345 264 343 268 340 b 274 336 279 329 282 320 b 284 314 285 307 285 300 l 285 298 l 285 291 l 285 278 l 285 270 l 285 95 b 285 78 298 65 315 65 b 332 65 345 78 345 95 l 345 270 l 345 278 l 345 291 l 345 297 l 345 299 b 345 313 343 327 338 340 b 332 356 321 374 303 387 b 291 396 278 401 265 404 b 254 407 243 408 233 408 b 232 408 230 408 229 408 b 206 407 183 403 161 393 b 146 386 132 376 121 364 z m 388 125 b 381 110 374 104 372 102 b 359 92 357 73 367 60 b 377 47 396 45 409 55 b 421 65 432 79 441 98 b 460 136 466 177 468 216 b 468 222 468 228 468 233 b 468 285 455 339 422 383 b 402 410 376 432 346 447 b 316 462 284 471 252 474 b 245 475 238 475 231 475 b 197 475 163 469 131 456 b 92 440 58 414 33 380 b 11 350 -3 316 -11 281 b -16 259 -18 237 -18 215 b -18 202 -17 189 -15 176 b -11 141 -2 107 13 75 b 28 43 50 13 78 -11 b 109 -37 146 -55 185 -64 b 206 -69 227 -71 248 -71 b 266 -71 284 -70 301 -67 b 363 -57 422 -32 473 3 b 487 12 490 31 481 45 b 472 59 453 62 439 53 b 395 22 344 1 292 -7 b 278 -9 263 -10 249 -10 b 232 -10 215 -8 199 -4 b 169 3 141 17 118 36 b 97 54 80 77 68 102 b 56 128 48 156 45 185 b 44 196 43 207 43 218 b 43 236 45 254 49 271 b 55 299 66 325 82 347 b 101 372 127 392 156 404 b 180 414 206 419 233 419 b 239 419 245 419 251 419 b 276 417 301 410 323 399 b 345 388 364 372 378 353 b 405 317 412 273 412 238 b 412 234 412 229 412 224 b 410 190 404 157 391 130 z m 191 198 l 252 218 b 268 223 277 240 272 256 b 267 272 250 281 234 276 l 173 256 b 124 240 88 200 88 139 b 88 137 88 133 88 131 b 91 108 95 92 110 74 b 117 66 131 51 156 44 b 164 42 172 41 181 41 b 192 41 204 43 215 46 l 251 58 b 267 63 275 80 270 96 b 265 112 248 120 232 115 l 197 103 b 190 101 185 100 180 100 b 176 100 173 100 170 101 b 165 102 159 105 155 110 b 149 117 147 124 146 133 b 146 134 146 136 146 136 b 146 160 155 185 189 196 z"},".":{"x_min":0,"x_max":170,"ha":170,"o":"m 84 104 b 47 104 17 74 17 37 b 17 0 47 -30 84 -30 b 121 -30 151 0 151 37 b 151 74 121 104 84 104 z"},"p":{"x_min":0,"x_max":606,"ha":606,"o":"m 86 640 l 86 0 b 86 -17 99 -30 116 -30 b 133 -30 146 -17 146 0 l 146 640 b 146 657 133 670 116 670 b 99 670 86 657 86 640 z m 362 670 l 217 670 b 200 670 187 657 187 640 b 187 623 200 610 217 610 l 362 610 b 472 610 500 529 500 464 b 500 378 450 329 374 329 l 220 329 b 203 329 190 316 190 299 b 190 282 203 269 220 269 l 374 269 b 478 269 560 339 560 464 b 560 572 499 670 362 670 z"},"X":{"x_min":0,"x_max":780,"ha":780,"o":"m 726 20 l 141 660 b 130 672 111 673 99 662 b 87 651 86 632 97 620 l 682 -20 b 693 -32 712 -33 724 -22 b 736 -11 737 8 726 20 z m 499 413 l 689 619 b 700 631 699 650 687 661 b 675 672 656 671 645 659 l 455 453 b 444 441 445 422 457 411 b 469 400 488 401 499 413 z m 100 -21 l 339 237 b 350 249 349 268 337 279 b 325 290 306 289 295 277 l 56 19 b 45 7 46 -12 58 -23 b 70 -34 89 -33 100 -21 z"},"*":{"x_min":0,"x_max":267,"ha":267,"o":"m 164 444 l 164 492 l 206 468 b 220 460 238 465 246 479 b 254 493 249 511 235 519 l 193 543 l 235 567 b 249 575 254 593 246 607 b 238 621 220 626 206 618 l 164 594 l 164 642 b 164 659 151 672 134 672 b 117 672 104 659 104 642 l 104 594 l 62 618 b 48 626 30 621 22 607 b 14 593 19 575 33 567 l 75 543 l 33 519 b 19 511 14 493 22 479 b 30 465 48 460 62 468 l 104 492 l 104 444 b 104 427 117 414 134 414 b 151 414 164 427 164 444 z"},"Y":{"x_min":0,"x_max":659,"ha":659,"o":"m 357 0 l 357 240 b 357 257 344 270 327 270 b 310 270 297 257 297 240 l 297 0 b 297 -17 310 -30 327 -30 b 344 -30 357 -17 357 0 z m 349 362 l 76 660 b 65 672 46 673 34 662 b 22 651 21 632 32 620 l 305 322 b 316 310 335 309 347 320 b 359 331 360 350 349 362 z m 579 660 l 406 472 b 395 460 396 441 408 430 b 420 419 439 420 450 432 l 623 620 b 634 632 633 651 621 662 b 609 673 590 672 579 660 z"},"c":{"x_min":0,"x_max":644,"ha":644,"o":"m 360 -30 b 435 -30 519 -1 582 62 b 594 74 594 93 582 105 b 570 117 551 117 539 105 b 488 54 420 30 359 30 l 355 30 b 309 31 263 45 224 70 b 185 95 152 132 130 174 b 109 214 98 260 96 306 b 96 309 96 312 96 316 b 96 358 104 400 120 439 b 138 484 171 536 224 571 b 257 592 302 609 354 609 l 354 609 b 406 609 451 592 484 571 b 498 562 517 566 526 580 b 535 594 531 613 517 622 b 469 653 412 670 354 670 l 354 670 b 296 670 239 653 191 622 b 132 584 89 527 64 464 b 45 417 36 367 36 317 b 36 312 36 308 36 304 b 38 250 51 196 76 147 b 102 96 142 52 191 21 b 239 -10 296 -27 353 -28 b 354 -28 356 -28 357 -28 z"},"!":{"x_min":0,"x_max":130,"ha":130,"o":"m 35 644 l 35 154 b 35 137 48 124 65 124 b 82 124 95 137 95 154 l 95 644 b 95 661 82 674 65 674 b 48 674 35 661 35 644 z m 65 104 b 28 104 -2 74 -2 37 b -2 0 28 -30 65 -30 b 102 -30 132 0 132 37 b 132 74 102 104 65 104 z"},"/":{"x_min":0,"x_max":320,"ha":320,"o":"m 93 -18 l 295 626 b 300 642 291 659 275 664 b 259 669 242 660 237 644 l 35 0 b 30 -16 39 -33 55 -38 b 71 -43 88 -34 93 -18 z"},"[":{"x_min":0,"x_max":170,"ha":170,"o":"m 94 614 l 133 614 b 150 614 163 627 163 644 b 163 661 150 674 133 674 l 64 674 b 47 674 34 661 34 644 l 35 -80 b 35 -97 48 -110 65 -110 l 133 -110 b 150 -110 163 -97 163 -80 b 163 -63 150 -50 133 -50 l 95 -50 z"},"6":{"x_min":0,"x_max":527,"ha":527,"o":"m 242 373 b 228 373 214 372 200 369 b 184 366 173 350 176 334 b 179 318 195 307 211 310 b 221 312 232 313 243 313 b 248 313 253 313 258 313 b 284 311 309 303 330 291 b 354 277 373 257 386 235 b 398 214 404 190 404 167 b 404 162 404 157 403 152 b 400 124 387 96 366 74 b 343 51 308 34 272 30 b 267 29 261 29 255 29 b 228 29 201 36 179 48 b 152 63 131 85 118 110 b 110 126 99 156 99 202 b 99 224 102 246 107 266 b 122 329 154 381 198 439 b 246 502 311 556 387 594 b 402 601 408 619 401 634 b 394 649 376 655 361 648 b 278 606 206 547 152 477 b 106 417 68 357 50 282 b 44 257 41 230 41 203 b 41 143 57 104 68 83 b 87 47 117 16 155 -4 b 187 -21 223 -30 260 -30 b 268 -30 276 -30 284 -29 b 334 -24 381 -2 415 32 b 446 63 465 103 470 144 b 471 151 471 158 471 165 b 471 199 462 233 445 263 b 427 294 401 321 368 340 b 339 357 306 368 271 371 b 264 372 257 372 250 372 z"},"r":{"x_min":0,"x_max":650,"ha":650,"o":"m 270 238 l 544 -22 b 556 -33 575 -33 586 -21 b 597 -9 597 10 585 21 l 311 281 b 299 292 280 292 269 280 b 258 268 258 249 270 238 z m 86 640 l 86 0 b 86 -17 99 -30 116 -30 b 133 -30 146 -17 146 0 l 146 640 b 146 657 133 670 116 670 b 99 670 86 657 86 640 z m 374 670 l 216 670 b 199 670 186 657 186 640 b 186 623 199 610 216 610 l 374 610 b 470 610 501 558 501 488 b 501 426 476 369 376 369 l 222 369 b 205 369 192 356 192 339 b 192 322 205 309 222 309 l 376 309 b 485 309 561 367 561 487 b 561 608 486 669 374 669 z"},"2":{"x_min":0,"x_max":513,"ha":513,"o":"m 166 -30 l 422 -30 b 439 -30 452 -17 452 0 b 452 17 439 30 422 30 l 166 30 b 149 30 136 17 136 0 b 136 -17 149 -30 166 -30 z m 57 18 b 57 11 57 4 58 -3 b 59 -19 74 -31 90 -30 b 107 -29 119 -14 118 3 b 118 8 118 13 118 18 b 118 55 129 93 150 126 b 166 151 192 184 260 234 b 304 267 354 300 393 347 b 411 368 426 392 435 419 b 441 437 444 456 444 475 b 444 485 443 495 441 505 b 433 543 411 578 379 602 b 343 629 300 639 266 639 l 264 639 b 229 639 186 630 148 604 b 114 580 89 546 79 507 b 75 491 85 475 101 471 b 117 467 133 477 137 493 b 143 517 159 540 182 556 b 208 575 238 582 262 582 l 264 582 b 287 582 317 575 342 556 b 363 540 377 518 381 495 b 382 489 383 483 383 477 b 383 465 381 453 377 441 b 371 423 360 405 346 388 b 315 351 269 320 223 286 b 177 252 130 213 98 162 b 72 120 57 72 57 23 z"},"{":{"x_min":0,"x_max":170,"ha":170,"o":"m 94 623 b 101 622 117 618 122 616 b 137 609 155 617 161 632 b 167 647 160 665 144 671 b 129 676 113 681 92 681 b 57 681 34 659 34 626 l 34 310 b 31 309 27 309 14 309 b -3 309 -16 296 -16 279 b -16 262 -3 249 14 249 b 23 249 29 248 33 247 l 33 -64 b 33 -96 111 -110 128 -113 b 128 -113 128 -113 128 -113 b 144 -115 159 -103 161 -87 b 163 -71 151 -56 135 -54 b 135 -53 134 -52 133 -52 b 132 -52 132 -54 131 -54 b 97 -55 93 -65 93 -65 l 93 255 b 92 258 92 267 87 277 b 91 283 93 290 93 299 z"},"9":{"x_min":0,"x_max":500,"ha":500,"o":"m 243 252 b 254 252 265 253 276 255 b 292 258 303 273 300 289 b 297 305 282 316 266 313 b 258 312 250 311 242 311 b 229 311 216 313 203 316 b 180 322 153 335 132 359 b 112 382 102 411 102 440 b 102 443 102 446 102 450 b 105 482 120 514 145 539 b 163 557 191 574 225 580 b 233 581 241 582 249 582 b 272 582 295 576 314 566 b 331 556 349 540 362 517 b 374 497 381 474 384 450 b 386 438 387 425 387 412 b 387 385 383 357 376 330 b 361 273 332 218 294 168 b 252 113 200 64 141 23 b 127 14 124 -5 133 -19 b 142 -33 161 -36 175 -27 b 239 18 296 71 342 131 b 384 186 417 248 434 315 b 442 347 447 380 447 413 b 447 428 446 443 444 458 b 440 488 431 518 415 546 b 395 579 368 602 343 616 b 315 632 283 640 251 640 b 240 640 229 639 218 637 b 175 629 136 608 107 579 b 72 545 50 500 46 453 b 45 447 45 442 45 437 b 45 394 60 351 89 317 b 119 282 158 263 191 254 b 209 249 227 247 245 247 z"}," ":{"x_min":0,"x_max":190,"ha":190,"o":""},"I":{"x_min":0,"x_max":230,"ha":230,"o":"m 85 640 l 85 0 b 85 -17 98 -30 115 -30 b 132 -30 145 -17 145 0 l 145 640 b 145 657 132 670 115 670 b 98 670 85 657 85 640 z"},"H":{"x_min":0,"x_max":665,"ha":665,"o":"m 520 640 l 520 0 b 520 -17 533 -30 550 -30 b 567 -30 580 -17 580 0 l 580 640 b 580 657 567 670 550 670 b 533 670 520 657 520 640 z m 200 314 l 466 314 b 483 314 496 327 496 344 b 496 361 483 374 466 374 l 200 374 b 183 374 170 361 170 344 b 170 327 183 314 200 314 z m 84 640 l 84 0 b 84 -17 97 -30 114 -30 b 131 -30 144 -17 144 0 l 144 640 b 144 657 131 670 114 670 b 97 670 84 657 84 640 z"},"4":{"x_min":0,"x_max":460,"ha":460,"o":"m 21 166 l 276 166 b 293 166 306 179 306 196 b 306 213 293 226 276 226 l 77 226 l 320 595 b 329 609 325 628 311 637 b 297 646 278 642 269 628 l -5 212 b -11 202 -11 191 -6 181 b -1 171 8 165 20 165 z m 383 -1 l 383 434 b 383 451 370 464 353 464 b 336 464 323 451 323 434 l 323 -1 b 323 -18 336 -31 353 -31 b 370 -31 383 -18 383 -1 z"},"~":{"x_min":0,"x_max":264,"ha":264,"o":"m 272 572 b 272 575 271 584 270 587 b 267 603 251 614 235 611 b 219 608 208 592 211 576 b 212 573 212 576 212 573 b 212 570 212 570 211 568 b 211 568 214 574 211 566 b 210 563 208 560 204 558 b 201 556 197 554 192 554 l 191 554 b 187 554 182 555 177 557 b 163 563 160 568 136 588 b 121 600 111 606 104 609 b 90 615 87 616 75 617 b 73 617 67 617 67 617 b 66 617 62 617 61 617 b 26 614 8 591 5 586 b -4 573 -8 558 -8 543 b -8 536 -7 529 -4 520 b 1 504 18 496 34 501 b 50 506 58 523 53 539 b 53 540 53 541 53 542 b 53 543 53 546 55 549 b 58 553 64 554 67 554 b 68 554 69 554 69 554 b 70 554 72 554 72 554 b 76 554 78 553 82 551 b 88 549 94 545 101 539 b 112 530 133 509 158 499 b 169 494 182 491 195 491 b 196 491 198 491 199 491 b 216 492 230 498 241 505 b 252 512 264 524 271 540 b 273 544 274 546 274 548 b 277 557 277 557 278 571 z"},"D":{"x_min":0,"x_max":613,"ha":613,"o":"m 241 670 l 206 670 b 189 670 176 657 176 640 b 176 623 189 610 206 610 l 240 610 b 253 609 265 608 278 606 b 310 601 340 592 367 578 b 394 564 418 544 437 520 b 458 493 473 461 482 427 b 491 392 495 355 495 318 l 495 316 b 495 278 491 241 481 206 b 471 170 455 136 432 109 b 402 73 364 52 331 41 b 312 35 292 31 272 30 b 268 30 264 30 259 30 b 255 30 251 30 246 30 l 199 30 b 182 30 169 17 169 0 b 169 -17 182 -30 199 -30 l 244 -30 b 250 -30 254 -30 259 -30 b 265 -30 270 -30 275 -30 b 300 -29 325 -24 349 -16 b 392 -2 440 25 478 71 b 507 106 526 148 538 191 b 549 233 553 276 553 318 l 553 320 b 553 361 549 403 538 444 b 527 485 509 525 482 559 b 458 590 427 615 393 633 b 359 651 322 662 285 668 b 270 670 254 671 239 672 z m 84 642 l 84 2 b 84 -15 97 -28 114 -28 b 131 -28 144 -15 144 2 l 144 642 b 144 659 131 672 114 672 b 97 672 84 659 84 642 z"},"^":{"x_min":0,"x_max":163,"ha":163,"o":"m 57 620 l -16 525 b -26 512 -24 493 -11 483 b 2 473 21 475 31 488 l 80 552 l 128 488 b 138 475 157 472 170 482 b 183 492 186 511 176 524 l 104 619 b 98 627 90 631 80 631 b 70 631 62 627 56 619 z"},"0":{"x_min":0,"x_max":615,"ha":615,"o":"m 104 296 b 104 299 104 303 104 308 l 104 315 b 104 362 110 428 143 486 b 159 513 180 537 206 554 b 236 574 268 582 295 583 b 296 583 299 583 299 583 b 329 583 360 574 386 559 b 413 543 436 519 453 492 b 488 436 500 370 500 300 b 500 251 494 181 458 121 b 442 95 421 72 396 56 b 371 40 341 30 311 29 b 310 29 307 29 307 29 b 278 29 248 37 223 51 b 197 66 174 88 157 114 b 123 166 109 230 107 296 z m 47 308 b 47 300 47 297 47 294 b 49 221 64 145 107 80 b 129 47 158 18 194 -3 b 228 -23 267 -34 307 -34 b 309 -34 311 -34 313 -34 b 355 -33 395 -20 429 2 b 463 24 490 54 510 87 b 549 152 561 226 561 297 b 561 374 548 453 505 522 b 484 556 455 587 419 609 b 384 630 343 642 301 642 b 299 642 297 642 295 642 b 259 641 216 631 176 604 b 141 581 114 550 94 515 b 58 453 46 383 46 315 z"},"F":{"x_min":0,"x_max":571,"ha":571,"o":"m 201 314 l 443 314 b 460 314 473 327 473 344 b 473 361 460 374 443 374 l 201 374 b 184 374 171 361 171 344 b 171 327 184 314 201 314 z m 85 640 l 85 0 b 85 -17 98 -30 115 -30 b 132 -30 145 -17 145 0 l 145 640 b 145 657 132 670 115 670 b 98 670 85 657 85 640 z m 502 670 l 201 670 b 184 670 171 657 171 640 b 171 623 184 610 201 610 l 502 610 b 519 610 532 623 532 640 b 532 657 519 670 502 670 z"},"`":{"x_min":0,"x_max":102,"ha":102,"o":"m 107 530 b 82 551 56 580 38 615 b 31 630 13 636 -2 629 b -17 622 -23 604 -16 589 b 6 544 38 509 67 484 b 80 473 99 475 110 488 b 121 501 119 520 106 531 z"},"k":{"x_min":0,"x_max":613,"ha":613,"o":"m 234 265 l 520 -21 b 532 -33 551 -33 563 -21 b 575 -9 575 10 563 22 l 277 308 b 265 320 246 320 234 308 b 222 296 222 277 234 265 z m 212 329 l 503 620 b 515 632 515 651 503 663 b 491 675 472 675 460 663 l 169 372 b 157 360 157 341 169 329 b 181 317 200 317 212 329 z m 145 0 l 145 640 b 145 657 132 670 115 670 b 98 670 85 657 85 640 l 85 0 b 85 -17 98 -30 115 -30 b 132 -30 145 -17 145 0 z"},"u":{"x_min":0,"x_max":690,"ha":690,"o":"m 134 170 l 134 640 b 134 657 121 670 104 670 b 87 670 74 657 74 640 l 74 170 b 74 153 87 140 104 140 b 121 140 134 153 134 170 z m 211 56 b 192 65 175 77 162 91 b 151 103 132 104 120 93 b 108 82 107 63 118 51 b 138 30 161 14 185 2 b 227 -18 279 -30 341 -30 b 419 -30 470 -12 498 2 b 522 14 545 30 565 51 b 576 63 575 82 563 93 b 551 104 532 103 521 91 b 508 77 491 65 472 56 b 449 45 407 30 341 30 b 309 30 258 33 212 55 z m 551 639 l 551 169 b 551 152 564 139 581 139 b 598 139 611 152 611 169 l 611 639 b 611 656 598 669 581 669 b 564 669 551 656 551 639 z"},"]":{"x_min":0,"x_max":170,"ha":170,"o":"m 65 -50 l 26 -50 b 9 -50 -4 -63 -4 -80 b -4 -97 9 -110 26 -110 l 95 -110 b 112 -110 125 -97 125 -80 l 124 644 b 124 661 111 674 94 674 l 26 674 b 9 674 -4 661 -4 644 b -4 627 9 614 26 614 l 64 614 z"},"U":{"x_min":0,"x_max":690,"ha":690,"o":"m 134 170 l 134 640 b 134 657 121 670 104 670 b 87 670 74 657 74 640 l 74 170 b 74 153 87 140 104 140 b 121 140 134 153 134 170 z m 211 56 b 192 65 175 77 162 91 b 151 103 132 104 120 93 b 108 82 107 63 118 51 b 138 30 161 14 185 2 b 227 -18 279 -30 341 -30 b 419 -30 470 -12 498 2 b 522 14 545 30 565 51 b 576 63 575 82 563 93 b 551 104 532 103 521 91 b 508 77 491 65 472 56 b 449 45 407 30 341 30 b 309 30 258 33 212 55 z m 551 639 l 551 169 b 551 152 564 139 581 139 b 598 139 611 152 611 169 l 611 639 b 611 656 598 669 581 669 b 564 669 551 656 551 639 z"},"o":{"x_min":0,"x_max":737,"ha":737,"o":"m 361 670 b 180 670 37 511 37 320 b 37 129 180 -30 361 -30 b 542 -30 685 129 685 320 b 685 511 542 670 361 670 z m 96 320 b 96 482 216 610 360 610 b 504 610 624 482 624 320 b 624 158 504 30 360 30 b 216 30 96 158 96 320 z"},"N":{"x_min":0,"x_max":663,"ha":663,"o":"m 579 200 l 579 640 b 579 657 566 670 549 670 b 532 670 519 657 519 640 l 519 200 b 519 183 532 170 549 170 b 566 170 579 183 579 200 z m 91 623 l 524 -17 b 533 -31 552 -35 566 -26 b 580 -17 584 2 575 16 l 142 656 b 133 670 114 674 100 665 b 86 656 82 637 91 623 z m 146 0 l 146 440 b 146 457 133 470 116 470 b 99 470 86 457 86 440 l 86 0 b 86 -17 99 -30 116 -30 b 133 -30 146 -17 146 0 z"},"+":{"x_min":0,"x_max":409,"ha":409,"o":"m 172 412 l 172 311 l 67 311 b 50 311 37 298 37 281 b 37 264 50 251 67 251 l 172 251 l 172 144 b 172 127 185 114 202 114 b 219 114 232 127 232 144 l 232 251 l 335 251 b 352 251 365 264 365 281 b 365 298 352 311 335 311 l 232 311 l 232 412 b 232 429 219 442 202 442 b 185 442 172 429 172 412 z"},"G":{"x_min":0,"x_max":672,"ha":672,"o":"m 445 592 b 459 586 473 579 486 571 b 500 562 519 566 528 580 b 537 594 533 613 519 622 b 503 632 486 641 468 648 b 450 655 432 660 413 664 b 394 668 375 670 356 670 b 337 670 318 668 299 664 b 280 660 262 655 244 648 b 226 641 209 632 193 622 b 174 609 156 594 140 577 b 124 560 110 542 98 523 b 86 504 76 484 67 463 b 61 447 56 431 52 415 b 48 399 45 383 43 366 b 41 349 40 332 40 315 b 40 313 40 311 40 309 b 40 307 40 305 40 303 b 41 285 43 267 46 249 b 49 231 54 213 60 196 b 66 179 73 162 81 146 b 90 129 100 113 112 98 b 124 83 137 69 151 56 b 165 43 180 31 196 21 b 212 11 229 2 247 -5 b 265 -12 283 -18 302 -22 b 321 -26 340 -28 359 -28 b 384 -28 409 -25 433 -18 b 457 -11 481 -1 503 12 b 553 42 596 93 610 157 b 614 178 614 205 614 210 l 614 311 b 614 328 601 341 584 341 b 567 341 554 328 554 311 l 554 209 b 554 193 552 177 550 169 b 541 126 511 87 472 64 b 455 54 437 46 418 41 b 399 36 379 33 359 33 b 344 33 329 35 314 38 b 299 41 284 45 270 51 b 256 57 242 64 229 72 b 216 80 204 90 193 101 b 181 112 170 124 160 137 b 150 150 142 163 135 177 b 128 190 122 204 117 218 b 112 232 108 247 105 262 b 102 277 100 292 99 307 b 99 309 99 313 99 313 b 99 315 99 319 99 319 b 99 333 100 347 102 361 b 104 375 107 389 111 403 b 115 417 119 430 124 443 b 131 461 140 478 150 494 b 160 510 172 525 185 539 b 198 552 212 564 228 574 b 241 582 255 589 269 595 b 283 601 298 605 313 608 b 328 611 343 613 358 613 b 373 613 388 611 403 608 b 418 605 433 601 447 595 z m 300 281 l 489 280 b 506 280 520 293 520 310 b 520 327 507 341 490 341 l 301 342 b 284 342 270 329 270 312 b 270 295 283 281 300 281 z"},"q":{"x_min":0,"x_max":748,"ha":748,"o":"m 651 21 l 400 272 b 388 284 369 284 357 272 b 345 260 345 241 357 229 l 608 -22 b 620 -34 639 -34 651 -22 b 663 -10 663 9 651 21 z m 361 -30 b 405 -30 447 -21 485 -4 b 500 3 507 21 500 36 b 493 51 475 58 460 51 b 429 37 395 29 360 29 b 216 29 96 157 96 319 b 96 481 216 609 360 609 b 504 609 624 481 624 319 b 624 266 611 216 588 173 b 580 158 586 140 601 132 b 616 124 634 130 642 145 b 669 196 685 255 685 318 b 685 509 542 668 361 668 b 180 668 37 509 37 318 b 37 127 180 -32 361 -32 z"},"d":{"x_min":0,"x_max":613,"ha":613,"o":"m 241 670 l 206 670 b 189 670 176 657 176 640 b 176 623 189 610 206 610 l 240 610 b 253 609 265 608 278 606 b 310 601 340 592 367 578 b 394 564 418 544 437 520 b 458 493 473 461 482 427 b 491 392 495 355 495 318 l 495 316 b 495 278 491 241 481 206 b 471 170 455 136 432 109 b 402 73 364 52 331 41 b 312 35 292 31 272 30 b 268 30 264 30 259 30 b 255 30 251 30 246 30 l 199 30 b 182 30 169 17 169 0 b 169 -17 182 -30 199 -30 l 244 -30 b 250 -30 254 -30 259 -30 b 265 -30 270 -30 275 -30 b 300 -29 325 -24 349 -16 b 392 -2 440 25 478 71 b 507 106 526 148 538 191 b 549 233 553 276 553 318 l 553 320 b 553 361 549 403 538 444 b 527 485 509 525 482 559 b 458 590 427 615 393 633 b 359 651 322 662 285 668 b 270 670 254 671 239 672 z m 84 642 l 84 2 b 84 -15 97 -28 114 -28 b 131 -28 144 -15 144 2 l 144 642 b 144 659 131 672 114 672 b 97 672 84 659 84 642 z"},"1":{"x_min":0,"x_max":318,"ha":318,"o":"m 188 638 l 33 548 b 19 540 14 522 22 508 b 30 494 48 489 62 497 l 217 587 b 231 595 236 613 228 627 b 220 641 202 646 188 638 z m 233 0 l 233 502 b 233 519 220 532 203 532 b 186 532 173 519 173 502 l 173 0 b 173 -17 186 -30 203 -30 b 220 -30 233 -17 233 0 z"},"5":{"x_min":0,"x_max":527,"ha":527,"o":"m 159 48 b 146 55 134 64 123 74 b 111 85 92 84 81 72 b 70 60 71 41 83 30 b 98 17 114 6 132 -3 b 150 -12 169 -19 188 -24 b 207 -29 227 -32 247 -32 b 250 -32 254 -32 257 -32 b 260 -32 264 -32 267 -32 b 270 -32 274 -32 277 -32 b 293 -30 308 -26 323 -21 b 338 -16 352 -9 365 -1 b 378 7 391 17 402 28 b 413 39 423 52 431 66 b 439 80 446 95 451 110 b 456 125 459 141 460 157 b 460 158 460 160 460 161 b 460 162 460 164 460 165 l 460 168 b 460 181 459 194 456 206 b 453 219 449 231 444 243 b 439 255 433 266 426 277 b 418 288 409 299 399 309 b 375 333 345 350 313 359 b 289 366 264 369 240 369 b 232 369 224 369 216 368 b 195 367 174 364 153 359 b 136 355 119 350 103 344 b 87 338 79 321 85 305 b 91 289 108 281 124 287 b 138 292 153 296 168 299 b 186 303 204 306 222 307 b 228 307 234 307 240 307 b 260 307 279 305 297 300 b 320 293 342 281 359 265 b 366 258 372 251 377 243 b 382 236 386 228 389 220 b 392 212 395 203 397 194 b 399 185 400 176 400 167 l 400 165 b 400 165 400 164 400 164 b 400 164 400 163 400 163 b 399 152 397 141 394 130 b 391 119 386 109 380 99 b 374 89 367 80 359 72 b 351 64 342 57 332 51 b 322 45 312 40 301 36 b 290 32 279 29 268 27 b 265 27 260 27 260 27 b 257 27 252 27 252 27 b 249 27 244 27 244 27 b 229 27 214 29 199 33 b 184 37 170 42 157 49 z m 84 611 l 84 401 b 84 384 97 371 114 371 b 131 371 144 384 144 401 l 144 611 b 144 628 131 641 114 641 b 97 641 84 628 84 611 z m 389 641 l 200 641 b 183 641 170 628 170 611 b 170 594 183 581 200 581 l 389 581 b 406 581 419 594 419 611 b 419 628 406 641 389 641 z"}}}
